PathFileType  4	(X/Y/Z) C:\Users\antoi\Documents\MyRepositories\mobilecap\ResultsAnalysis
DataRate	CameraRate	NumFrames	NumMarkers	Units	OrigDataRate	OrigDataStartFrame	OrigNumFrames
100.0	100.0	5	51	mm	100.0	136	271
Frame#	Time	r_knee			r_shank_antsup			r_ankle			r_calc			r_5meta			r_toe			L_knee			L_shank_antsup			L_ankle			L_calc			L_5meta			L_toe			r_sh2			r_sh3			r_sh4			L_sh2			L_sh3			r_thigh1			r_thigh2			r_thigh3			r_thigh4			r_thigh5			L_thigh1			L_thigh2			L_thigh3			L_thigh4			r.ASIS			r.PSIS			L.ASIS			L.PSIS			C7			R_Shoulder			L_Shoulder			R_Sternum			L_Sternum			R_humerus			R_elbow_med			R_elbow_lat			R_forearm			R_wrist_radius			R_wrist_ulna			L_humerus			L_elbow_med			L_elbow_lat			L_forearm			L_wrist_radius			L_wrist_ulna			R_HJC			L_HJC			R_HJC_reg			L_HJC_reg			
		X1	Y1	Z1	X2	Y2	Z2	X3	Y3	Z3	X4	Y4	Z4	X5	Y5	Z5	X6	Y6	Z6	X7	Y7	Z7	X8	Y8	Z8	X9	Y9	Z9	X10	Y10	Z10	X11	Y11	Z11	X12	Y12	Z12	X13	Y13	Z13	X14	Y14	Z14	X15	Y15	Z15	X16	Y16	Z16	X17	Y17	Z17	X18	Y18	Z18	X19	Y19	Z19	X20	Y20	Z20	X21	Y21	Z21	X22	Y22	Z22	X23	Y23	Z23	X24	Y24	Z24	X25	Y25	Z25	X26	Y26	Z26	X27	Y27	Z27	X28	Y28	Z28	X29	Y29	Z29	X30	Y30	Z30	X31	Y31	Z31	X32	Y32	Z32	X33	Y33	Z33	X34	Y34	Z34	X35	Y35	Z35	X36	Y36	Z36	X37	Y37	Z37	X38	Y38	Z38	X39	Y39	Z39	X40	Y40	Z40	X41	Y41	Z41	X42	Y42	Z42	X43	Y43	Z43	X44	Y44	Z44	X45	Y45	Z45	X46	Y46	Z46	X47	Y47	Z47	X48	Y48	Z48	X49	Y49	Z49	X50	Y50	Z50	X51	Y51	Z51	

136	1.35000000	-576.07457	849.36346	-408.75185	-540.51251	752.87927	-407.80959	-633.85866	435.53910	-414.55616	-688.33668	432.38286	-475.92782	-549.98261	325.67401	-375.81925	-497.84563	350.79591	-414.32041	-587.05318	853.49628	-751.97150	-538.15948	772.56239	-748.83529	-586.81475	434.62423	-756.69423	-652.75125	418.86414	-691.74094	-508.19534	330.86801	-791.39846	-446.14702	351.62701	-752.50488	-550.81166	639.61358	-405.68703	-608.30876	757.92548	-373.78889	-624.81283	644.99673	-369.77985	-623.10587	783.98083	-780.78506	-622.24013	661.32124	-790.67414	-614.76065	1131.63687	-400.40117	-573.25319	1029.64607	-410.42553	-608.21920	984.91220	-373.98316	-714.80719	1084.11247	-374.26020	-663.47812	980.42749	-387.47122	-597.01065	1110.22593	-743.98922	-543.08205	981.01707	-732.44139	-691.26710	1069.94146	-785.13771	-641.20871	946.97265	-765.45261	-623.34516	1296.68624	-452.44915	-814.89088	1350.75568	-529.04312	-624.58351	1302.18304	-701.09435	-811.26657	1351.80688	-618.86487	-667.27199	1795.32107	-569.03477	-612.96818	1785.99749	-429.36055	-600.76024	1761.88292	-694.71624	-563.26120	1699.80780	-534.10618	-560.43184	1698.05641	-582.24478	-547.52100	1744.35980	-335.71578	-560.75001	1597.27834	-171.04300	-541.30382	1662.15610	-144.88474	-448.09984	1649.83471	-164.54887	-313.40280	1562.77111	-213.19774	-310.32900	1561.56864	-162.53569	-524.31817	1712.28287	-783.87467	-459.05956	1546.91445	-895.22006	-457.77463	1614.88189	-937.54397	-379.47121	1631.41510	-935.79702	-205.69721	1594.55847	-933.27546	-220.21584	1595.88791	-985.03284	-709.84621	1218.02321	-475.98144	-709.76971	1223.12332	-665.47530	-705.00375	1230.96548	-491.39122	-698.38588	1232.88601	-655.39462	
137	1.36000000	-565.20367	839.57629	-406.69064	-526.26664	744.48637	-405.70961	-604.66255	423.22472	-412.38081	-658.25579	419.78884	-474.09751	-518.95989	313.96393	-374.27638	-466.92141	340.47058	-412.03778	-574.12796	844.19063	-752.15599	-522.97767	765.32602	-749.49263	-557.61809	425.10660	-758.67552	-622.18066	408.79975	-692.80513	-476.68901	321.32885	-791.55535	-414.77400	344.53835	-754.01423	-531.37274	630.91065	-402.96074	-594.53689	746.57494	-372.41780	-605.75431	633.02086	-368.07723	-608.38362	773.40349	-780.76428	-602.53374	650.77665	-791.34575	-605.20140	1121.66352	-399.55165	-563.21178	1019.54320	-409.27326	-598.23562	975.17020	-372.61071	-705.30057	1074.03349	-373.93335	-653.45859	970.43251	-386.23473	-586.41123	1100.90987	-743.60328	-531.07171	972.23277	-732.41074	-679.86328	1059.86828	-785.50872	-628.74596	937.39831	-765.82926	-613.28302	1286.34580	-452.43077	-804.87873	1340.50916	-528.93315	-614.40128	1292.54471	-700.08637	-801.06503	1342.00008	-618.01270	-655.91988	1784.45824	-568.33985	-601.61192	1775.80441	-429.43508	-588.72891	1751.75844	-693.32046	-552.15349	1688.41112	-533.42637	-549.32667	1686.66332	-581.59506	-536.38479	1734.28039	-335.92858	-554.89620	1591.97320	-167.58539	-533.50400	1657.11163	-142.60859	-440.65082	1641.09026	-161.92101	-308.80975	1548.25045	-208.12269	-305.93905	1548.63688	-156.40256	-512.23790	1701.71210	-783.12200	-453.20143	1539.20377	-901.49690	-450.54134	1609.26069	-941.81943	-371.66433	1622.53883	-939.88837	-199.37070	1579.66817	-942.66512	-214.78313	1583.86394	-994.03333	-699.79693	1207.70549	-475.81438	-699.56280	1213.40017	-665.29099	-694.88946	1220.70700	-491.73365	-687.89574	1223.44141	-655.06592	
138	1.37000000	-554.32900	828.16267	-404.66908	-512.08113	734.97145	-403.53031	-576.50535	410.95275	-409.99711	-629.72101	407.37996	-471.75931	-489.26038	301.91313	-373.03912	-437.52090	329.62356	-410.33739	-561.06539	833.49748	-752.26935	-508.15436	756.54717	-750.12705	-529.70916	415.24480	-760.89412	-593.61374	398.50215	-694.73036	-446.74539	311.62868	-792.00229	-385.16158	336.28541	-754.85364	-512.32158	621.24208	-400.29676	-580.58746	734.13750	-371.66760	-587.06750	620.23006	-366.33309	-593.98120	761.57631	-780.60922	-583.51051	639.22523	-791.96439	-595.35827	1110.41296	-398.44446	-552.76943	1008.36217	-407.85753	-587.85016	964.17153	-371.15314	-695.53840	1062.36007	-373.60713	-643.00424	958.99807	-385.37665	-575.16106	1090.15944	-743.51682	-518.64036	962.22574	-732.51971	-667.92832	1048.36495	-785.62643	-615.80772	926.37970	-765.75208	-603.08919	1274.86594	-452.59146	-794.42499	1329.28045	-528.82163	-603.92164	1281.88313	-698.93546	-790.64112	1331.25652	-617.40468	-644.85077	1772.46135	-567.36443	-590.78012	1764.61701	-429.74481	-576.96526	1741.10488	-692.59545	-541.23800	1675.97709	-532.73300	-538.19628	1674.22793	-581.02624	-525.89377	1723.58990	-335.99713	-549.57499	1585.90948	-164.09629	-526.44725	1651.52988	-139.98282	-433.93867	1631.79049	-159.27331	-304.96427	1533.02137	-203.43566	-302.22596	1535.61636	-150.15773	-500.45943	1690.63594	-782.54808	-448.01767	1530.93424	-908.13811	-443.68641	1603.14661	-946.38488	-364.48312	1612.95173	-944.14798	-194.20948	1564.10569	-952.97339	-210.09713	1571.58645	-1003.40905	-689.60341	1196.31537	-475.76458	-689.11590	1202.69321	-665.21918	-684.37332	1209.50679	-492.02490	-677.43163	1213.12973	-654.48742	
139	1.38000000	-543.14730	815.21766	-402.94708	-497.58334	724.32429	-401.33427	-549.59596	398.54452	-407.57506	-602.87756	394.74544	-469.04234	-460.76611	289.75703	-372.01217	-409.59928	318.46063	-409.16570	-547.93348	821.37284	-752.31259	-493.25932	746.26553	-750.76073	-503.09794	404.85909	-763.14339	-567.04797	387.59357	-697.30525	-418.23387	301.83643	-792.74161	-357.30617	327.05574	-754.89867	-493.60642	610.64502	-397.86292	-566.27653	720.85652	-370.79258	-568.46679	606.80261	-364.47706	-579.50193	748.51748	-780.50901	-565.04911	626.66275	-792.42748	-585.09418	1097.89781	-397.29533	-541.88118	996.09115	-406.36162	-577.04086	951.77059	-369.88228	-685.35184	1049.12620	-373.57321	-632.04334	946.12973	-384.90668	-563.16496	1078.05689	-743.58659	-505.71845	950.80178	-732.48739	-655.70299	1035.44138	-785.43967	-602.52571	913.93109	-765.28466	-592.80875	1262.41739	-452.40454	-783.55027	1317.13690	-528.71444	-593.10478	1270.16568	-697.73597	-779.97714	1319.52887	-617.17909	-633.90946	1759.43764	-566.37190	-580.26622	1752.43691	-430.00996	-565.50625	1729.29233	-691.46052	-530.27006	1662.63910	-532.00389	-527.08937	1660.84805	-580.53467	-516.00724	1712.12907	-335.81428	-544.91042	1579.45197	-159.70365	-520.23185	1645.16586	-137.21853	-428.06861	1621.91551	-156.43945	-302.00116	1517.96693	-197.98369	-299.30875	1522.28378	-143.79201	-489.54062	1678.91444	-781.89282	-443.42294	1522.09789	-914.96541	-437.28646	1595.95281	-950.42927	-357.94724	1602.64914	-948.96590	-190.31194	1548.14170	-963.77650	-206.16350	1558.93012	-1013.32128	-679.31491	1184.00162	-475.63802	-678.32275	1190.94742	-665.07049	-673.53788	1197.35813	-491.78716	-666.99843	1201.73267	-653.59226	
140	1.39000000	-530.99984	801.20570	-401.76003	-482.55807	712.53239	-399.41502	-524.12168	385.85974	-405.21675	-577.70833	381.56566	-466.17481	-433.49332	277.60268	-370.92273	-383.09623	306.94191	-408.39424	-534.49441	807.98796	-752.30454	-478.03579	734.66967	-751.27346	-477.84485	393.78679	-765.15447	-542.30460	375.83693	-700.28391	-391.15706	291.34791	-793.35307	-331.17624	316.82188	-754.23744	-475.05035	599.06906	-395.78454	-551.55698	706.95909	-368.97256	-549.82908	592.91357	-362.72512	-564.46237	734.58304	-780.61313	-546.95382	613.36316	-793.27491	-574.39134	1084.14854	-396.06917	-530.55643	982.72630	-404.85837	-565.81764	937.93396	-368.92102	-674.70878	1034.63467	-373.80257	-620.61173	932.04273	-384.59848	-550.60024	1064.74661	-743.74266	-492.29276	937.78078	-732.17157	-643.23324	1021.23404	-784.97709	-589.05254	900.23842	-764.76352	-582.43552	1249.00868	-451.63683	-772.53371	1303.95868	-528.55359	-582.03838	1257.39622	-696.70676	-768.97804	1306.65744	-617.24443	-623.00419	1745.48814	-565.74526	-569.85726	1739.28069	-430.01467	-554.12327	1716.21120	-689.81349	-519.11744	1648.39671	-531.05514	-516.16225	1646.68310	-579.83155	-506.64563	1699.84470	-335.25775	-540.98901	1572.51821	-154.78635	-514.73637	1637.50822	-134.82883	-423.12309	1611.34081	-153.17327	-299.92351	1503.21251	-191.25474	-297.32667	1508.46820	-137.21387	-479.55964	1666.47858	-781.38968	-439.42655	1512.78071	-921.59591	-431.38603	1587.59199	-953.98385	-351.98588	1591.73117	-954.29447	-187.07768	1532.33276	-974.82548	-203.14706	1545.70760	-1023.79208	-668.90340	1170.70957	-475.38841	-667.17875	1178.09742	-664.79867	-662.74720	1184.08593	-491.17373	-656.26300	1189.00434	-652.80797	
